# xmcd
#
# Track frame offsets:
#	150
#	17351
#	31365
#	59311
#	79241
#
# Disc length: 1371 seconds
#
# Revision: 0
# Processed by: cddbd v1.5.2PL0 Copyright (c) Steve Scherf et al.
# Submitted via: audiograbber 1.83.01
#
DISCID=31055905
DTITLE=Turpentine Moan - Turpentine Moan
DYEAR=2012
DGENRE=Blues
TTITLE0=Road Without Joy
TTITLE1=Snowfall Blues
TTITLE2=What You've Got
TTITLE3=Metropolis
TTITLE4=Ballantines Blues
EXTD=
EXTT0=
EXTT1=
EXTT2=
EXTT3=
EXTT4=
PLAYORDER=
